<?xml version="1.0" encoding="utf-8"?>
<svg xmlns="http://www.w3.org/2000/svg"
	xmlns:xlink="http://www.w3.org/1999/xlink"
	width="953px" height="49px" viewBox="0 0 953 49">
<filter filterUnits="objectBoundingBox" x="0.00" y="0.00" width="100.00" height="100.00" id="filter0">
<feFlood flood-color="rgb(85,85,85)" result="coFloodOut1"/>
<feComposite in="coFloodOut1" in2="SourceAlpha" operator="in" result="coOverlay1"/>
<feBlend in="coOverlay1" in2="SourceGraphic" mode="normal" result="colorOverlay1"/>
</filter>
<filter filterUnits="objectBoundingBox" x="0.00" y="0.00" width="100.00" height="100.00" id="filter1">
<feFlood flood-color="rgb(85,85,85)" result="coFloodOut1"/>
<feComposite in="coFloodOut1" in2="SourceAlpha" operator="in" result="coOverlay1"/>
<feBlend in="coOverlay1" in2="SourceGraphic" mode="normal" result="colorOverlay1"/>
</filter>
<filter filterUnits="objectBoundingBox" x="0.00" y="0.00" width="100.00" height="100.00" id="filter2">
<feFlood flood-color="rgb(85,85,85)" result="coFloodOut1"/>
<feComposite in="coFloodOut1" in2="SourceAlpha" operator="in" result="coOverlay1"/>
<feBlend in="coOverlay1" in2="SourceGraphic" mode="normal" result="colorOverlay1"/>
</filter>
<filter filterUnits="objectBoundingBox" x="0.00" y="0.00" width="100.00" height="100.00" id="filter3">
<feFlood flood-color="rgb(85,85,85)" result="coFloodOut1"/>
<feComposite in="coFloodOut1" in2="SourceAlpha" operator="in" result="coOverlay1"/>
<feBlend in="coOverlay1" in2="SourceGraphic" mode="normal" result="colorOverlay1"/>
</filter>
<path fillRule="evenodd" d="M 47.67 19.72C 47.67 19.72 33.4 33.99 33.4 33.99 33.4 33.99 0.53 48.46 0.53 48.46 0.53 48.46 15.01 15.59 15.01 15.59 15.01 15.59 29.28 1.33 29.28 1.33 29.9 0.71 30.9 0.71 31.53 1.33 32.15 1.95 32.15 2.95 31.53 3.58 31.53 3.58 17.68 17.42 17.68 17.42 17.68 17.42 9.11 36.89 9.11 36.89 9.11 36.89 12.11 39.89 12.11 39.89 12.11 39.89 31.57 31.31 31.57 31.31 31.57 31.31 45.42 17.47 45.42 17.47 46.04 16.85 47.04 16.85 47.67 17.47 48.29 18.09 48.29 19.1 47.67 19.72ZM 29.75 28.47C 29.43 28.77 29.03 28.93 28.62 28.93 28.21 28.93 27.81 28.77 27.5 28.47 26.88 27.84 26.88 26.84 27.5 26.22 27.5 26.22 40.83 12.88 40.83 12.88 41.45 12.26 42.45 12.26 43.08 12.88 43.7 13.51 43.7 14.51 43.08 15.13 43.08 15.13 29.75 28.47 29.75 28.47ZM 26.26 24.99C 25.95 25.29 25.55 25.45 25.14 25.45 24.73 25.45 24.33 25.29 24.02 24.99 23.39 24.36 23.39 23.35 24.02 22.73 24.02 22.73 37.35 9.4 37.35 9.4 37.97 8.78 38.97 8.78 39.6 9.4 40.22 10.02 40.22 11.03 39.6 11.65 39.6 11.65 26.26 24.99 26.26 24.99ZM 22.78 21.5C 22.47 21.81 22.07 21.97 21.66 21.97 21.25 21.97 20.84 21.81 20.53 21.5 19.91 20.88 19.91 19.87 20.53 19.25 20.53 19.25 33.87 5.92 33.87 5.92 34.49 5.3 35.5 5.3 36.12 5.92 36.74 6.54 36.74 7.55 36.12 8.17 36.12 8.17 22.78 21.5 22.78 21.5Z" fill="rgb(0,0,0)" filter="url(#filter0)"/><path fillRule="evenodd" d="M 303.41 28.7C 303.41 28.7 307.4 26.55 307.4 26.55 307.4 26.55 324.85 35.96 324.85 35.96 324.85 35.96 342.3 26.55 342.3 26.55 342.3 26.55 346.29 28.7 346.29 28.7 346.29 28.7 324.85 40.25 324.85 40.25 324.85 40.25 303.41 28.7 303.41 28.7ZM 303.41 20.67C 303.41 20.67 324.85 9.11 324.85 9.11 324.85 9.11 346.29 20.67 346.29 20.67 346.29 20.67 324.85 32.23 324.85 32.23 324.85 32.23 303.41 20.67 303.41 20.67ZM 324.85 43.98C 324.85 43.98 342.3 34.57 342.3 34.57 342.3 34.57 346.29 36.72 346.29 36.72 346.29 36.72 324.85 48.28 324.85 48.28 324.85 48.28 303.41 36.72 303.41 36.72 303.41 36.72 307.4 34.57 307.4 34.57 307.4 34.57 324.85 43.98 324.85 43.98Z" fill="rgb(0,0,0)" filter="url(#filter1)"/><path fillRule="evenodd" d="M 645.93 25.85C 645.93 24.23 644.76 22.5 643.32 21.99 641.88 21.48 640.49 20.24 640.08 19.25 639.68 18.27 639.78 16.4 640.44 15.02 641.09 13.64 640.69 11.59 639.55 10.44 638.4 9.3 636.36 8.9 634.98 9.56 633.6 10.21 631.73 10.32 630.75 9.91 629.76 9.51 628.52 8.11 628.01 6.67 627.49 5.23 625.76 4.07 624.14 4.07 622.52 4.07 620.79 5.23 620.28 6.67 619.77 8.11 618.52 9.51 617.54 9.91 616.56 10.32 614.69 10.21 613.31 9.56 611.93 8.9 609.88 9.3 608.74 10.44 607.59 11.59 607.19 13.64 607.85 15.02 608.51 16.4 608.61 18.27 608.2 19.25 607.8 20.23 606.41 21.48 604.97 21.99 603.53 22.5 602.36 24.23 602.36 25.85 602.36 27.47 603.53 29.2 604.97 29.71 606.41 30.22 607.8 31.47 608.21 32.45 608.61 33.43 608.51 35.3 607.85 36.68 607.19 38.06 607.59 40.11 608.74 41.26 609.88 42.4 611.93 42.8 613.31 42.14 614.69 41.49 616.56 41.38 617.54 41.79 618.52 42.2 619.77 43.59 620.28 45.03 620.79 46.47 622.52 47.63 624.14 47.63 625.76 47.63 627.49 46.47 628.01 45.03 628.52 43.59 629.76 42.2 630.74 41.79 631.73 41.38 633.6 41.49 634.98 42.14 636.36 42.8 638.4 42.4 639.55 41.26 640.69 40.11 641.09 38.06 640.44 36.68 639.78 35.3 639.67 33.43 640.08 32.45 640.48 31.47 641.88 30.22 643.32 29.71 644.76 29.2 645.93 27.47 645.93 25.85ZM 624.14 33.84C 619.72 33.84 616.15 30.27 616.15 25.86 616.15 21.44 619.72 17.87 624.14 17.87 628.55 17.87 632.13 21.44 632.13 25.86 632.13 30.27 628.55 33.84 624.14 33.84Z" fill="rgb(0,0,0)" filter="url(#filter2)"/><path fillRule="evenodd" d="M 952.41 26.34C 952.41 26.34 942.92 45.76 942.92 45.76 942.33 46.98 940.73 47.98 939.38 47.98 939.38 47.98 904.08 47.98 904.08 47.98 902.73 47.98 902.11 46.98 902.71 45.76 902.71 45.76 912.2 26.34 912.2 26.34 912.8 25.12 914.39 24.12 915.74 24.12 915.74 24.12 951.04 24.12 951.04 24.12 952.39 24.12 953.01 25.12 952.41 26.34ZM 910 25.25C 910 25.25 901.74 42.15 901.74 42.15 901.74 42.15 901.74 19.98 901.74 19.98 901.74 18.62 902.84 17.5 904.2 17.5 904.2 17.5 915.01 17.5 915.01 17.5 915.01 17.5 915.01 16.06 915.01 16.06 915.01 15.06 915.39 14.13 916.09 13.43 916.79 12.72 917.72 12.33 918.7 12.33 918.7 12.33 924.99 12.33 924.99 12.33 927.02 12.33 928.67 14 928.67 16.06 928.67 16.06 928.67 17.5 928.67 17.5 928.67 17.5 939.49 17.5 939.49 17.5 940.84 17.5 941.95 18.62 941.95 19.98 941.95 19.98 941.95 21.64 941.95 21.64 941.95 21.64 915.74 21.64 915.74 21.64 913.47 21.64 911 23.19 910 25.25ZM 917.47 17.5C 917.47 17.5 926.22 17.5 926.22 17.5 926.22 17.5 926.22 16.06 926.22 16.06 926.22 15.37 925.67 14.82 924.99 14.82 924.99 14.82 918.7 14.82 918.7 14.82 918.37 14.82 918.06 14.94 917.83 15.18 917.6 15.42 917.47 15.73 917.47 16.06 917.47 16.06 917.47 17.5 917.47 17.5Z" fill="rgb(0,0,0)" filter="url(#filter3)"/></svg>