<?xml version="1.0" encoding="utf-8"?>
<svg xmlns="http://www.w3.org/2000/svg"
	xmlns:xlink="http://www.w3.org/1999/xlink"
	width="80px" height="26px" viewBox="0 0 80 26">
<filter filterUnits="objectBoundingBox" x="0.00" y="0.00" width="100.00" height="100.00" id="filter0">
<feFlood flood-color="rgb(255,255,255)" result="coFloodOut1"/>
<feComposite in="coFloodOut1" in2="SourceAlpha" operator="in" result="coOverlay1"/>
<feBlend in="coOverlay1" in2="SourceGraphic" mode="normal" result="colorOverlay1"/>
</filter>
<filter filterUnits="objectBoundingBox" x="0.00" y="0.00" width="100.00" height="100.00" id="filter1">
<feFlood flood-color="rgb(255,255,255)" result="coFloodOut1"/>
<feComposite in="coFloodOut1" in2="SourceAlpha" operator="in" result="coOverlay1"/>
<feBlend in="coOverlay1" in2="SourceGraphic" mode="normal" result="colorOverlay1"/>
</filter>
<path fillRule="evenodd" d="M 23.5 11.24C 23.5 11.24 21.57 13.17 21.57 13.17 21.57 13.17 18.39 16.36 18.39 16.36 18.23 16.53 18.05 16.68 17.87 16.82 16.1 18.22 13.75 18.52 11.72 17.72 10.97 17.43 10.26 16.97 9.64 16.36 9.64 16.36 12.28 13.71 12.28 13.71 13.24 14.67 14.79 14.67 15.74 13.71 15.74 13.71 17.77 11.69 17.77 11.69 17.77 11.69 20.86 8.6 20.86 8.6 21.81 7.64 21.81 6.09 20.86 5.14 19.9 4.18 18.35 4.18 17.4 5.14 17.4 5.14 14.94 7.59 14.94 7.59 13.41 6.88 11.65 6.76 10.03 7.22 10.03 7.22 14.76 2.49 14.76 2.49 17.16 0.09 21.1 0.09 23.5 2.49 25.92 4.91 25.92 8.84 23.5 11.24ZM 14.26 8.29C 15.01 8.58 15.73 9.04 16.34 9.66 16.34 9.66 13.7 12.3 13.7 12.3 12.74 11.35 11.19 11.35 10.24 12.3 10.24 12.3 5.13 17.42 5.13 17.42 4.17 18.37 4.17 19.92 5.13 20.88 6.08 21.83 7.63 21.83 8.59 20.88 8.59 20.88 10.94 18.52 10.94 18.52 12.95 19.33 13.49 19.39 15.85 18.85 15.85 18.85 11.23 23.52 11.23 23.52 8.82 25.93 4.89 25.93 2.48 23.52 0.08 21.12 0.08 17.18 2.48 14.77 2.48 14.77 7.6 9.66 7.6 9.66 7.67 9.59 7.75 9.5 7.84 9.43 9.63 7.83 12.13 7.44 14.26 8.29Z" fill="rgb(0,0,0)" filter="url(#filter0)"/><path fillRule="evenodd" d="M 79.46 24.17C 79.14 24.49 78.71 24.65 78.29 24.65 77.87 24.65 77.45 24.49 77.13 24.17 77.13 24.17 72.79 19.9 72.79 19.9 70.9 21.35 68.53 22.22 65.96 22.22 59.79 22.22 54.78 17.28 54.78 11.2 54.78 5.13 59.79 0.19 65.96 0.19 72.12 0.19 77.14 5.13 77.14 11.2 77.14 13.57 76.37 15.76 75.07 17.56 75.07 17.56 79.46 21.88 79.46 21.88 80.1 22.51 80.1 23.54 79.46 24.17ZM 65.96 2.78C 61.24 2.78 57.41 6.56 57.41 11.2 57.41 15.85 61.24 19.63 65.96 19.63 68.06 19.63 69.99 18.87 71.48 17.62 71.94 17.24 72.36 16.81 72.72 16.34 73.84 14.91 74.51 13.13 74.51 11.2 74.51 6.56 70.67 2.78 65.96 2.78ZM 70.81 9.58C 70.62 9.67 70.43 9.71 70.23 9.71 69.75 9.71 69.28 9.44 69.05 8.98 68.35 7.56 66.91 6.67 65.3 6.67 64.58 6.67 63.99 6.09 63.99 5.38 63.99 4.66 64.58 4.08 65.3 4.08 67.92 4.08 70.27 5.52 71.42 7.85 71.74 8.49 71.46 9.27 70.81 9.58Z" fill="rgb(0,0,0)" filter="url(#filter1)"/></svg>
