<?xml version="1.0" encoding="utf-8"?>
<svg xmlns="http://www.w3.org/2000/svg"
	xmlns:xlink="http://www.w3.org/1999/xlink"
	width="100px" height="100px" viewBox="0 0 100 100">
<filter filterUnits="objectBoundingBox" x="0.00" y="0.00" width="100.00" height="100.00" id="filter0">
<feFlood flood-color="rgb(255,255,255)" result="coFloodOut1"/>
<feComposite in="coFloodOut1" in2="SourceAlpha" operator="in" result="coOverlay1"/>
<feBlend in="coOverlay1" in2="SourceGraphic" mode="normal" result="colorOverlay1"/>
</filter>
<circle cx="50.00" cy="50.00" r="50.00" fill="rgb(0,0,0)" opacity="0.20"/><path fillRule="evenodd" d="M 46.25 33.65C 46.25 33.65 63.97 48.42 63.97 48.42 64.44 48.81 64.71 49.39 64.71 50 64.71 50.61 64.44 51.19 63.97 51.58 63.97 51.58 46.25 66.34 46.25 66.34 45.88 66.66 45.41 66.82 44.93 66.82 44.64 66.82 44.34 66.76 44.06 66.63 43.34 66.29 42.87 65.56 42.87 64.76 42.87 64.76 42.87 35.24 42.87 35.24 42.87 34.44 43.34 33.71 44.06 33.37 44.78 33.03 45.64 33.14 46.25 33.65ZM 46.99 60.36C 46.99 60.36 59.43 50 59.43 50 59.43 50 46.99 39.63 46.99 39.63 46.99 39.63 46.99 60.36 46.99 60.36ZM 74.76 74.76C 68.03 81.48 59.03 85 49.94 85 44.07 85 38.17 83.54 32.83 80.53 31.84 79.97 31.49 78.71 32.05 77.72 32.6 76.73 33.86 76.38 34.85 76.94 46.87 83.7 62.08 81.61 71.85 71.85 83.89 59.8 83.89 40.2 71.85 28.15 59.8 16.1 40.2 16.1 28.15 28.15 16.1 40.2 16.1 59.8 28.15 71.85 28.95 72.65 28.95 73.95 28.15 74.76 27.35 75.56 26.04 75.56 25.24 74.76 11.58 61.1 11.58 38.89 25.24 25.24 38.89 11.58 61.1 11.58 74.76 25.24 88.41 38.89 88.41 61.1 74.76 74.76Z" fill="rgb(0,0,0)" filter="url(#filter0)"/></svg>