<?xml version="1.0" encoding="utf-8"?>
<svg xmlns="http://www.w3.org/2000/svg"
	xmlns:xlink="http://www.w3.org/1999/xlink"
	width="847px" height="44px" viewBox="0 0 847 44">
<filter filterUnits="objectBoundingBox" x="0.00" y="0.00" width="100.00" height="100.00" id="filter0">
<feFlood flood-color="rgb(199,178,153)" result="coFloodOut1"/>
<feComposite in="coFloodOut1" in2="SourceAlpha" operator="in" result="coOverlay1"/>
<feBlend in="coOverlay1" in2="SourceGraphic" mode="normal" result="colorOverlay1"/>
</filter>
<filter filterUnits="objectBoundingBox" x="0.00" y="0.00" width="100.00" height="100.00" id="filter1">
<feFlood flood-color="rgb(199,178,153)" result="coFloodOut1"/>
<feComposite in="coFloodOut1" in2="SourceAlpha" operator="in" result="coOverlay1"/>
<feBlend in="coOverlay1" in2="SourceGraphic" mode="normal" result="colorOverlay1"/>
</filter>
<filter filterUnits="objectBoundingBox" x="0.00" y="0.00" width="100.00" height="100.00" id="filter2">
<feFlood flood-color="rgb(199,178,153)" result="coFloodOut1"/>
<feComposite in="coFloodOut1" in2="SourceAlpha" operator="in" result="coOverlay1"/>
<feBlend in="coOverlay1" in2="SourceGraphic" mode="normal" result="colorOverlay1"/>
</filter>
<filter filterUnits="objectBoundingBox" x="0.00" y="0.00" width="100.00" height="100.00" id="filter3">
<feFlood flood-color="rgb(199,178,153)" result="coFloodOut1"/>
<feComposite in="coFloodOut1" in2="SourceAlpha" operator="in" result="coOverlay1"/>
<feBlend in="coOverlay1" in2="SourceGraphic" mode="normal" result="colorOverlay1"/>
</filter>
<filter filterUnits="objectBoundingBox" x="0.00" y="0.00" width="100.00" height="100.00" id="filter4">
<feFlood flood-color="rgb(199,178,153)" result="coFloodOut1"/>
<feComposite in="coFloodOut1" in2="SourceAlpha" operator="in" result="coOverlay1"/>
<feBlend in="coOverlay1" in2="SourceGraphic" mode="normal" result="colorOverlay1"/>
</filter>
<path fillRule="evenodd" d="M 19.94 30.25C 25.63 30.25 30.25 24.62 30.25 17.7 30.25 10.78 25.63 5.16 19.94 5.16 17.12 5.16 14.5 6.5 12.54 8.94 10.66 11.3 9.62 14.41 9.62 17.7 9.62 24.62 14.25 30.25 19.94 30.25ZM 19.94 7.91C 24.11 7.91 27.5 12.3 27.5 17.7 27.5 23.11 24.11 27.5 19.94 27.5 15.77 27.5 12.37 23.11 12.37 17.7 12.37 12.3 15.77 7.91 19.94 7.91ZM 28.6 28.87C 27.84 28.87 27.22 29.49 27.22 30.25 27.22 31.01 27.84 31.62 28.6 31.62 33.3 31.62 37.12 35.45 37.12 40.15 37.12 40.76 36.63 41.25 36.02 41.25 36.02 41.25 3.85 41.25 3.85 41.25 3.24 41.25 2.75 40.76 2.75 40.15 2.75 35.45 6.57 31.62 11.27 31.62 12.03 31.62 12.65 31.01 12.65 30.25 12.65 29.49 12.03 28.87 11.27 28.87 5.06 28.87-0 33.93-0 40.15-0 42.27 1.73 44 3.85 44 3.85 44 36.02 44 36.02 44 38.15 44 39.87 42.27 39.87 40.15 39.87 33.93 34.82 28.87 28.6 28.87ZM 20.94 3.63C 21.93 3.05 22.98 2.75 24.06 2.75 28.23 2.75 31.62 7.15 31.62 12.55 31.62 13.52 31.52 14.47 31.31 15.38 31.13 16.11 31.59 16.85 32.33 17.03 32.43 17.05 32.54 17.06 32.64 17.06 33.27 17.06 33.83 16.64 33.98 16 34.24 14.89 34.37 13.73 34.37 12.55 34.37 5.63 29.75-0 24.06-0 22.5-0 20.94 0.44 19.54 1.26 18.89 1.65 18.67 2.49 19.06 3.14 19.45 3.8 20.29 4.01 20.94 3.63ZM 33 23.37C 32.24 23.37 31.62 23.99 31.62 24.75 31.62 25.51 32.24 26.12 33 26.12 37.7 26.12 41.25 30.04 41.25 34.74 41.25 34.9 41.22 35.05 41.16 35.19 40.85 35.89 41.16 36.7 41.85 37.01 42.03 37.09 42.22 37.12 42.41 37.12 42.94 37.12 43.44 36.82 43.67 36.31 43.89 35.81 44 35.29 44 34.74 44 28.53 39.22 23.37 33 23.37Z" fill="rgb(0,0,0)" filter="url(#filter0)"/><path fillRule="evenodd" d="M 242.04 42.75C 242.04 43.44 241.49 44 240.81 44 240.81 44 197.23 44 197.23 44 196.55 44 196 43.44 196 42.75 196 42.06 196.55 41.5 197.23 41.5 197.23 41.5 240.81 41.5 240.81 41.5 241.49 41.5 242.04 42.06 242.04 42.75ZM 217.77 22.21C 218.01 22.44 218.31 22.55 218.61 22.55 218.94 22.55 219.27 22.42 219.51 22.15 219.98 21.65 219.95 20.86 219.45 20.38 217.34 18.38 217.79 14.31 219.61 12.01 222.08 8.89 222.62 3.33 219.45 0.34 218.95-0.13 218.17-0.11 217.71 0.4 217.24 0.9 217.27 1.7 217.77 2.17 219.67 3.96 219.63 7.99 217.68 10.45 216.4 12.07 215.64 14.23 215.59 16.4 215.53 18.76 216.3 20.82 217.77 22.21ZM 244 19.61C 244 19.61 244 22.01 244 22.01 244 25.45 241.24 28.25 237.85 28.25 237.85 28.25 235.09 28.25 235.09 28.25 233.22 33.52 228.24 37.3 222.41 37.3 222.41 37.3 215.64 37.3 215.64 37.3 208.21 37.3 202.16 31.18 202.16 23.64 202.16 23.64 202.16 11.23 202.16 11.23 202.16 10.54 202.72 9.98 203.4 9.98 203.4 9.98 211.31 9.98 211.31 9.98 212.92 7.5 212.85 3.85 211.06 2.17 210.56 1.69 210.54 0.9 211 0.4 211.47-0.11 212.25-0.13 212.75 0.34 215.91 3.33 215.37 8.89 212.9 12.01 211.08 14.31 210.63 18.38 212.75 20.38 213.24 20.86 213.27 21.65 212.81 22.15 212.34 22.66 211.56 22.68 211.06 22.21 209.6 20.82 208.82 18.76 208.88 16.4 208.91 15.05 209.22 13.7 209.76 12.48 209.76 12.48 204.63 12.48 204.63 12.48 204.63 12.48 204.63 23.64 204.63 23.64 204.63 29.8 209.57 34.8 215.64 34.8 215.64 34.8 222.41 34.8 222.41 34.8 228.47 34.8 233.41 29.8 233.41 23.64 233.41 23.64 233.41 12.48 233.41 12.48 233.41 12.48 224.13 12.48 224.13 12.48 223.45 12.48 222.9 11.92 222.9 11.23 222.9 10.54 223.45 9.98 224.13 9.98 224.13 9.98 234.65 9.98 234.65 9.98 235.33 9.98 235.88 10.54 235.88 11.23 235.88 11.23 235.88 13.38 235.88 13.38 235.88 13.38 237.85 13.38 237.85 13.38 241.24 13.38 244 16.17 244 19.61ZM 241.53 19.61C 241.53 17.55 239.88 15.88 237.85 15.88 237.85 15.88 235.88 15.88 235.88 15.88 235.88 15.88 235.88 25.75 235.88 25.75 235.88 25.75 237.85 25.75 237.85 25.75 239.88 25.75 241.53 24.07 241.53 22.01 241.53 22.01 241.53 19.61 241.53 19.61Z" fill="rgb(0,0,0)" filter="url(#filter1)"/><path fillRule="evenodd" d="M 427.87 23.37C 427.87 23.37 414.13 23.37 414.13 23.37 413.37 23.37 412.75 23.99 412.75 24.75 412.75 25.51 413.37 26.12 414.13 26.12 414.13 26.12 427.87 26.12 427.87 26.12 428.63 26.12 429.25 25.51 429.25 24.75 429.25 23.99 428.63 23.37 427.87 23.37ZM 430.62 15.13C 430.62 15.13 411.38 15.13 411.38 15.13 410.62 15.13 410 15.74 410 16.5 410 17.26 410.62 17.87 411.38 17.87 411.38 17.87 430.62 17.87 430.62 17.87 431.38 17.87 432 17.26 432 16.5 432 15.74 431.38 15.13 430.62 15.13ZM 421 0C 408.85 0 399 8.62 399 19.25 399 25.32 402.23 30.73 407.25 34.26 407.25 34.26 407.25 44 407.25 44 407.25 44 416.89 38.15 416.89 38.15 418.22 38.37 419.59 38.5 421 38.5 433.15 38.5 443 29.88 443 19.25 443 8.62 433.15 0 421 0ZM 421 35.75C 419.39 35.75 417.84 35.56 416.35 35.24 416.35 35.24 409.88 39.13 409.88 39.13 409.88 39.13 409.97 32.76 409.97 32.76 405.01 29.77 401.75 24.84 401.75 19.25 401.75 10.14 410.37 2.75 421 2.75 431.63 2.75 440.25 10.14 440.25 19.25 440.25 28.36 431.63 35.75 421 35.75Z" fill="rgb(0,0,0)" filter="url(#filter2)"/><path fillRule="evenodd" d="M 629.25-0C 628.83-0 628.4 0.03 627.98 0.06 627.83 0.08 627.68 0.1 627.52 0.12 627.27 0.15 627.01 0.19 626.76 0.24 626.57 0.27 626.38 0.31 626.2 0.35 625.99 0.4 625.78 0.46 625.57 0.51 625.37 0.57 625.18 0.62 624.98 0.69 624.81 0.74 624.63 0.81 624.46 0.88 624 1.05 623.55 1.24 623.12 1.46 623.03 1.5 622.94 1.54 622.86 1.59 622.63 1.71 622.41 1.84 622.18 1.98 622.06 2.05 621.94 2.12 621.82 2.2 621.6 2.34 621.4 2.48 621.19 2.63 621.13 2.68 621.06 2.72 621 2.76 618.62 0.97 615.73-0 612.75-0 605.17-0 599 6.17 599 13.75 599 26.19 607 37.45 620.41 43.86 620.59 43.95 620.8 44 621 44 621.2 44 621.41 43.95 621.59 43.86 635 37.45 643 26.19 643 13.75 643 6.17 636.83-0 629.25-0ZM 621 41.1C 608.93 35.11 601.75 24.93 601.75 13.75 601.75 7.68 606.68 2.75 612.75 2.75 614.97 2.75 617.12 3.43 618.94 4.68 616.81 7.11 615.5 10.28 615.5 13.75 615.5 14.51 616.11 15.12 616.87 15.12 617.64 15.12 618.25 14.51 618.25 13.75 618.25 10.48 619.7 7.54 621.97 5.52 622.18 5.33 622.4 5.16 622.63 4.99 622.68 4.95 622.73 4.91 622.78 4.87 623 4.71 623.22 4.56 623.45 4.42 623.51 4.38 623.58 4.34 623.64 4.3 623.86 4.17 624.09 4.05 624.32 3.93 624.4 3.89 624.48 3.85 624.56 3.81 624.78 3.71 625.01 3.61 625.23 3.52 625.33 3.48 625.43 3.45 625.54 3.41 625.75 3.33 625.97 3.26 626.18 3.2 626.32 3.16 626.44 3.12 626.58 3.09 626.78 3.04 626.97 2.99 627.17 2.95 627.35 2.92 627.54 2.9 627.72 2.87 627.87 2.85 628.03 2.82 628.19 2.8 628.54 2.77 628.89 2.75 629.25 2.75 635.32 2.75 640.25 7.68 640.25 13.75 640.25 24.93 633.07 35.11 621 41.1ZM 629.25 5.5C 628.49 5.5 627.87 6.12 627.87 6.87 627.87 7.63 628.49 8.25 629.25 8.25 632.28 8.25 634.75 10.72 634.75 13.75 634.75 14.51 635.36 15.12 636.12 15.12 636.88 15.12 637.5 14.51 637.5 13.75 637.5 9.2 633.8 5.5 629.25 5.5Z" fill="rgb(0,0,0)" filter="url(#filter3)"/><path fillRule="evenodd" d="M 845.31 40.61C 845.31 40.61 794.69 40.61 794.69 40.61 793.76 40.61 793 41.37 793 42.3 793 43.24 793.76 44 794.69 44 794.69 44 845.31 44 845.31 44 846.24 44 847 43.24 847 42.3 847 41.37 846.24 40.61 845.31 40.61ZM 821.69 6.77C 821.69 6.77 821.69 3.39 821.69 3.39 821.69 3.39 825.06 3.39 825.06 3.39 825.99 3.39 826.75 2.63 826.75 1.69 826.75 0.76 825.99 0 825.06 0 825.06 0 814.94 0 814.94 0 814.01 0 813.25 0.76 813.25 1.69 813.25 2.63 814.01 3.39 814.94 3.39 814.94 3.39 818.31 3.39 818.31 3.39 818.31 3.39 818.3 6.91 818.31 6.77 804.19 7.65 793 19.46 793 33.84 793 35.22 793 34.6 793 35.54 793 36.47 793.76 37.23 794.69 37.23 794.69 37.23 845.31 37.23 845.31 37.23 846.24 37.23 847 36.47 847 35.54 847 34.6 847 35.32 847 33.84 847 19.46 835.81 7.65 821.69 6.77ZM 796.38 33.84C 796.38 20.76 806.95 10.16 820 10.16 833.05 10.16 843.62 20.76 843.62 33.84 843.62 33.84 796.38 33.84 796.38 33.84Z" fill="rgb(0,0,0)" filter="url(#filter4)"/></svg>